{
  "asset": {
    "generator": "Khronos glTF Blender I/O v1.5.17",
    "version": "2.0"
  },
  "scene": 0,
  "scenes": [
    {
      "name": "Scene",
      "nodes": [
        1
      ]
    }
  ],
  "nodes": [
    {
      "mesh": 0,
      "name": "cup",
      "translation": [
        0.015810327604413033,
        0.5468243956565857,
        0.041115861386060715
      ],
      "rotation": [
        0,
        0,
        0,
        1
      ],
      "scale": [
        1,
        1,
        1
      ]
    },
    {
      "children": [
        0
      ],
      "mesh": 1,
      "name": "cup.001",
      "translation": [
        0.030457666143774986,
        0.06201795116066933,
        0.004828609060496092
      ],
      "rotation": [
        0,
        0,
        0,
        1
      ],
      "scale": [
        1,
        1,
        1
      ]
    }
  ],
  "meshes": [
    {
      "name": "Cylinder.001",
      "primitives": [
        {
          "attributes": {
            "POSITION": 0,
            "NORMAL": 1,
            "TEXCOORD_0": 2
          },
          "indices": 3,
          "mode": 4,
          "material": 0
        }
      ]
    },
    {
      "name": "plate",
      "primitives": [
        {
          "attributes": {
            "POSITION": 4,
            "NORMAL": 5,
            "TEXCOORD_0": 6
          },
          "indices": 7,
          "mode": 4,
          "material": 1
        }
      ]
    }
  ],
  "accessors": [
    {
      "bufferView": 0,
      "componentType": 5126,
      "count": 12146,
      "max": [
        0.7557908892631531,
        0.5333312749862671,
        1.0950056314468384
      ],
      "min": [
        -0.7853620648384094,
        -0.5766331553459167,
        -0.8126707077026367
      ],
      "type": "VEC3",
      "byteOffset": 0
    },
    {
      "bufferView": 1,
      "componentType": 5126,
      "count": 12146,
      "type": "VEC3",
      "byteOffset": 0
    },
    {
      "bufferView": 2,
      "componentType": 5126,
      "count": 12146,
      "type": "VEC2",
      "byteOffset": 0
    },
    {
      "bufferView": 3,
      "componentType": 5123,
      "count": 62784,
      "type": "SCALAR",
      "byteOffset": 0
    },
    {
      "bufferView": 4,
      "componentType": 5126,
      "count": 4443,
      "max": [
        1.0946671962738037,
        0.05603156238794327,
        1.0945343971252441
      ],
      "min": [
        -1.0952091217041016,
        -0.053919464349746704,
        -1.095339298248291
      ],
      "type": "VEC3",
      "byteOffset": 0
    },
    {
      "bufferView": 5,
      "componentType": 5126,
      "count": 4443,
      "type": "VEC3",
      "byteOffset": 0
    },
    {
      "bufferView": 6,
      "componentType": 5126,
      "count": 4443,
      "type": "VEC2",
      "byteOffset": 0
    },
    {
      "bufferView": 7,
      "componentType": 5123,
      "count": 25296,
      "type": "SCALAR",
      "byteOffset": 0
    }
  ],
  "bufferViews": [
    {
      "buffer": 0,
      "byteLength": 145752,
      "byteOffset": 0,
      "byteStride": 12,
      "target": 34962
    },
    {
      "buffer": 0,
      "byteLength": 145752,
      "byteOffset": 145752,
      "byteStride": 12,
      "target": 34962
    },
    {
      "buffer": 0,
      "byteLength": 97168,
      "byteOffset": 291504,
      "byteStride": 8,
      "target": 34962
    },
    {
      "buffer": 0,
      "byteLength": 125568,
      "byteOffset": 388672,
      "target": 34963
    },
    {
      "buffer": 0,
      "byteLength": 53316,
      "byteOffset": 514240,
      "byteStride": 12,
      "target": 34962
    },
    {
      "buffer": 0,
      "byteLength": 53316,
      "byteOffset": 567556,
      "byteStride": 12,
      "target": 34962
    },
    {
      "buffer": 0,
      "byteLength": 35544,
      "byteOffset": 620872,
      "byteStride": 8,
      "target": 34962
    },
    {
      "buffer": 0,
      "byteLength": 50592,
      "byteOffset": 656416,
      "target": 34963
    }
  ],
  "buffers": [
    {
      "name": "cup",
      "byteLength": 707008,
      "uri": "data:application/octet-stream;base64,"
    }
  ],
  "materials": [
    {
      "name": "default",
      "emissiveFactor": [
        0,
        0,
        0
      ],
      "alphaMode": "OPAQUE",
      "doubleSided": false
    },
    {
      "name": "default",
      "emissiveFactor": [
        0,
        0,
        0
      ],
      "alphaMode": "OPAQUE",
      "doubleSided": false
    }
  ]
}
