{
    "asset" : {
        "generator" : "Khronos glTF Blender I/O v1.5.17",
        "version" : "2.0"
    },
    "scene" : 0,
    "scenes" : [
        {
            "name" : "Scene",
            "nodes" : [
                1
            ]
        }
    ],
    "nodes" : [
        {
            "mesh" : 0,
            "name" : "cup"
        },
        {
            "children" : [
                0
            ],
            "mesh" : 1,
            "name" : "cup.001"
        }
    ],
    "meshes" : [
        {
            "name" : "Cylinder.001",
            "primitives" : [
                {
                    "attributes" : {
                        "POSITION" : 0,
                        "NORMAL" : 1,
                        "TEXCOORD_0" : 2
                    },
                    "indices" : 3
                }
            ]
        },
        {
            "name" : "plate",
            "primitives" : [
                {
                    "attributes" : {
                        "POSITION" : 4,
                        "NORMAL" : 5,
                        "TEXCOORD_0" : 6
                    },
                    "indices" : 7
                }
            ]
        }
    ],
    "accessors" : [
        {
            "bufferView" : 0,
            "componentType" : 5126,
            "count" : 12146,
            "max" : [
                0.2682046592235565,
                0.25951042771339417,
                0.3789365291595459
            ],
            "min" : [
                -0.24551302194595337,
                -0.11047772318124771,
                -0.2569555938243866
            ],
            "type" : "VEC3"
        },
        {
            "bufferView" : 1,
            "componentType" : 5126,
            "count" : 12146,
            "type" : "VEC3"
        },
        {
            "bufferView" : 2,
            "componentType" : 5126,
            "count" : 12146,
            "type" : "VEC2"
        },
        {
            "bufferView" : 3,
            "componentType" : 5123,
            "count" : 62784,
            "type" : "SCALAR"
        },
        {
            "bufferView" : 4,
            "componentType" : 5126,
            "count" : 4443,
            "max" : [
                0.375893235206604,
                -0.08186431974172592,
                0.36507415771484375
            ],
            "min" : [
                -0.354065477848053,
                -0.11851460486650467,
                -0.364883691072464
            ],
            "type" : "VEC3"
        },
        {
            "bufferView" : 5,
            "componentType" : 5126,
            "count" : 4443,
            "type" : "VEC3"
        },
        {
            "bufferView" : 6,
            "componentType" : 5126,
            "count" : 4443,
            "type" : "VEC2"
        },
        {
            "bufferView" : 7,
            "componentType" : 5123,
            "count" : 25296,
            "type" : "SCALAR"
        }
    ],
    "bufferViews" : [
        {
            "buffer" : 0,
            "byteLength" : 145752,
            "byteOffset" : 0
        },
        {
            "buffer" : 0,
            "byteLength" : 145752,
            "byteOffset" : 145752
        },
        {
            "buffer" : 0,
            "byteLength" : 97168,
            "byteOffset" : 291504
        },
        {
            "buffer" : 0,
            "byteLength" : 125568,
            "byteOffset" : 388672
        },
        {
            "buffer" : 0,
            "byteLength" : 53316,
            "byteOffset" : 514240
        },
        {
            "buffer" : 0,
            "byteLength" : 53316,
            "byteOffset" : 567556
        },
        {
            "buffer" : 0,
            "byteLength" : 35544,
            "byteOffset" : 620872
        },
        {
            "buffer" : 0,
            "byteLength" : 50592,
            "byteOffset" : 656416
        }
    ],
    "buffers" : [
        {
            "byteLength" : 707008,
            "uri" : "data:application/octet-stream;base64,"
        }
    ]
}
