{
    "asset" : {
        "generator" : "Khronos glTF Blender I/O v1.5.17",
        "version" : "2.0"
    },
    "scene" : 0,
    "scenes" : [
        {
            "name" : "Scene",
            "nodes" : [
                3
            ]
        }
    ],
    "nodes" : [
        {
            "mesh" : 0,
            "name" : "Torus.001",
            "rotation" : [
                -0.056447818875312805,
                -0.0564478300511837,
                -0.7048501372337341,
                0.7048500776290894
            ],
            "scale" : [
                3.7539243698120117,
                1.4683343172073364,
                3.0046751499176025
            ],
            "translation" : [
                0.33623576164245605,
                -0.08140850067138672,
                0.02365461178123951
            ]
        },
        {
            "mesh" : 1,
            "name" : "Torus.002",
            "rotation" : [
                -0.3932211101055145,
                -0.3932211697101593,
                -0.5876879692077637,
                0.5876879692077637
            ],
            "scale" : [
                3.75392484664917,
                1.4683343172073364,
                3.0046746730804443
            ],
            "translation" : [
                -0.5154538154602051,
                -0.10379600524902344,
                0.16460728645324707
            ]
        },
        {
            "mesh" : 2,
            "name" : "Torus.003",
            "rotation" : [
                0.30430513620376587,
                0.3043050169944763,
                -0.6382777094841003,
                0.6382777094841003
            ],
            "scale" : [
                3.7539258003234863,
                1.4683343172073364,
                3.0046749114990234
            ],
            "translation" : [
                -0.03532330319285393,
                -0.10700559616088867,
                0.004171809181571007
            ]
        },
        {
            "children" : [
                0,
                1,
                2
            ],
            "mesh" : 3,
            "name" : "Cube",
            "rotation" : [
                0,
                0.7071068286895752,
                0,
                0.7071068286895752
            ],
            "scale" : [
                0.26608994603157043,
                0.26608994603157043,
                0.26608994603157043
            ],
            "translation" : [
                0,
                1.3113170862197876,
                0
            ]
        }
    ],
    "meshes" : [
        {
            "name" : "Torus.001",
            "primitives" : [
                {
                    "attributes" : {
                        "POSITION" : 0,
                        "NORMAL" : 1,
                        "TEXCOORD_0" : 2
                    },
                    "indices" : 3
                }
            ]
        },
        {
            "name" : "Torus.004",
            "primitives" : [
                {
                    "attributes" : {
                        "POSITION" : 4,
                        "NORMAL" : 5,
                        "TEXCOORD_0" : 6
                    },
                    "indices" : 3
                }
            ]
        },
        {
            "name" : "Torus.005",
            "primitives" : [
                {
                    "attributes" : {
                        "POSITION" : 7,
                        "NORMAL" : 8,
                        "TEXCOORD_0" : 9
                    },
                    "indices" : 3
                }
            ]
        },
        {
            "name" : "Cube.001",
            "primitives" : [
                {
                    "attributes" : {
                        "POSITION" : 10,
                        "NORMAL" : 11,
                        "TEXCOORD_0" : 12
                    },
                    "indices" : 13
                }
            ]
        }
    ],
    "accessors" : [
        {
            "bufferView" : 0,
            "componentType" : 5126,
            "count" : 2425,
            "max" : [
                1.2705326080322266,
                0.27468398213386536,
                0.8961159586906433
            ],
            "min" : [
                -1.271742582321167,
                -0.27468979358673096,
                -0.8924753069877625
            ],
            "type" : "VEC3"
        },
        {
            "bufferView" : 1,
            "componentType" : 5126,
            "count" : 2425,
            "type" : "VEC3"
        },
        {
            "bufferView" : 2,
            "componentType" : 5126,
            "count" : 2425,
            "type" : "VEC2"
        },
        {
            "bufferView" : 3,
            "componentType" : 5123,
            "count" : 13824,
            "type" : "SCALAR"
        },
        {
            "bufferView" : 4,
            "componentType" : 5126,
            "count" : 2425,
            "max" : [
                1.2705326080322266,
                0.27468398213386536,
                0.8961159586906433
            ],
            "min" : [
                -1.271742582321167,
                -0.27468979358673096,
                -0.8924753069877625
            ],
            "type" : "VEC3"
        },
        {
            "bufferView" : 5,
            "componentType" : 5126,
            "count" : 2425,
            "type" : "VEC3"
        },
        {
            "bufferView" : 6,
            "componentType" : 5126,
            "count" : 2425,
            "type" : "VEC2"
        },
        {
            "bufferView" : 7,
            "componentType" : 5126,
            "count" : 2425,
            "max" : [
                1.2705326080322266,
                0.27468398213386536,
                0.8961159586906433
            ],
            "min" : [
                -1.271742582321167,
                -0.27468979358673096,
                -0.8924753069877625
            ],
            "type" : "VEC3"
        },
        {
            "bufferView" : 8,
            "componentType" : 5126,
            "count" : 2425,
            "type" : "VEC3"
        },
        {
            "bufferView" : 9,
            "componentType" : 5126,
            "count" : 2425,
            "type" : "VEC2"
        },
        {
            "bufferView" : 10,
            "componentType" : 5126,
            "count" : 441,
            "max" : [
                0.8395062685012817,
                0.8395062685012817,
                0.8395062685012817
            ],
            "min" : [
                -0.8395062685012817,
                -0.8395062685012817,
                -0.8395062685012817
            ],
            "type" : "VEC3"
        },
        {
            "bufferView" : 11,
            "componentType" : 5126,
            "count" : 441,
            "type" : "VEC3"
        },
        {
            "bufferView" : 12,
            "componentType" : 5126,
            "count" : 441,
            "type" : "VEC2"
        },
        {
            "bufferView" : 13,
            "componentType" : 5123,
            "count" : 2304,
            "type" : "SCALAR"
        }
    ],
    "bufferViews" : [
        {
            "buffer" : 0,
            "byteLength" : 29100,
            "byteOffset" : 0
        },
        {
            "buffer" : 0,
            "byteLength" : 29100,
            "byteOffset" : 29100
        },
        {
            "buffer" : 0,
            "byteLength" : 19400,
            "byteOffset" : 58200
        },
        {
            "buffer" : 0,
            "byteLength" : 27648,
            "byteOffset" : 77600
        },
        {
            "buffer" : 0,
            "byteLength" : 29100,
            "byteOffset" : 105248
        },
        {
            "buffer" : 0,
            "byteLength" : 29100,
            "byteOffset" : 134348
        },
        {
            "buffer" : 0,
            "byteLength" : 19400,
            "byteOffset" : 163448
        },
        {
            "buffer" : 0,
            "byteLength" : 29100,
            "byteOffset" : 182848
        },
        {
            "buffer" : 0,
            "byteLength" : 29100,
            "byteOffset" : 211948
        },
        {
            "buffer" : 0,
            "byteLength" : 19400,
            "byteOffset" : 241048
        },
        {
            "buffer" : 0,
            "byteLength" : 5292,
            "byteOffset" : 260448
        },
        {
            "buffer" : 0,
            "byteLength" : 5292,
            "byteOffset" : 265740
        },
        {
            "buffer" : 0,
            "byteLength" : 3528,
            "byteOffset" : 271032
        },
        {
            "buffer" : 0,
            "byteLength" : 4608,
            "byteOffset" : 274560
        }
    ],
    "buffers" : [
        {
            "byteLength" : 279168,
            "uri" : "data:application/octet-stream;base64,"
        }
    ]
}
